<?xml version="1.0" encoding="UTF-8" standalone="no"?>
<svg
   xmlns:dc="http://purl.org/dc/elements/1.1/"
   xmlns:cc="http://creativecommons.org/ns#"
   xmlns:rdf="http://www.w3.org/1999/02/22-rdf-syntax-ns#"
   xmlns:svg="http://www.w3.org/2000/svg"
   xmlns="http://www.w3.org/2000/svg"
   height="299.70032"
   width="970.12762"
   version="1.1"
   viewBox="0 0 970.12764 299.7003"
   data-name="Layer 1"
   id="Layer_1">
  <metadata
     id="metadata27">
    <rdf:RDF>
      <cc:Work
         rdf:about="">
        <dc:format>image/svg+xml</dc:format>
        <dc:type
           rdf:resource="http://purl.org/dc/dcmitype/StillImage" />
        <dc:title>snake-logo</dc:title>
      </cc:Work>
    </rdf:RDF>
  </metadata>
  <defs
     id="defs4">
    <style
       id="style2">.cls-1{fill:#fff;}.cls-2{fill:#00bfb3;}</style>
  </defs>
  <title
     id="title6">snake-logo</title>
  <g
     transform="translate(-99.662369,-132.2)"
     id="g845">
    <path
       style="fill:#ffffff"
       class="cls-1"
       d="m 100.21,304.16 a 2,2 0 0 0 0,2.75 l 24.49,24.49 a 1.94,1.94 0 0 1 0,2.75 l -24.45,24.45 a 2,2 0 0 0 0,2.74 l 20.83,20.83 a 2,2 0 0 0 2.75,0 l 48,-48 a 1.93,1.93 0 0 0 0,-2.74 l -48.07,-48.06 a 1.93,1.93 0 0 0 -2.74,0 z"
       id="path8" />
    <path
       style="fill:#ffffff"
       class="cls-1"
       d="m 277.18,261.23 a 2,2 0 0 0 0,-2.75 L 252.69,234 a 1.93,1.93 0 0 1 0,-2.74 l 24.45,-24.45 a 2,2 0 0 0 0,-2.75 l -20.83,-20.83 a 2,2 0 0 0 -2.74,0 l -48,48 a 2,2 0 0 0 0,2.75 l 48.07,48.05 a 1.94,1.94 0 0 0 2.75,0 z"
       id="path10" />
    <path
       style="fill:#00bfb3"
       class="cls-2"
       d="m 266.1,331.21 -28.88,-28.89 v 0 l -68.11,-68.11 a 2.18,2.18 0 0 1 0,-3.05 L 237.2,163 a 2.16,2.16 0 0 0 0,-3.05 L 211.35,134.1 a 2.16,2.16 0 0 0 -3,0 l -97,97 a 2.16,2.16 0 0 0 0,3.05 l 28.89,28.89 c 0,0 0,0 0,0 l 68.06,68.16 a 2.16,2.16 0 0 1 0,3.05 l -68.11,68.11 a 2.16,2.16 0 0 0 0,3.05 L 166,431.27 a 2.16,2.16 0 0 0 3.05,0 l 97,-97 a 2.16,2.16 0 0 0 0.05,-3.06 z"
       id="path12" />
    <path
       style="fill:#ffffff"
       class="cls-1"
       d="m 336.86,316.35 c 15.46,11.18 29.92,16.44 44.72,16.44 15.46,0 23.68,-5.92 23.68,-16.77 0,-10.52 -6.58,-15.13 -27.29,-20.72 -17.1,-4.27 -22.69,-6.9 -29.6,-12.49 -9.21,-7.24 -13.48,-17.43 -13.48,-31.24 0,-28.28 19.4,-44.72 52.61,-44.72 15.79,0 27.62,3.28 41.11,11.18 V 248 c -15.13,-10.52 -26.64,-14.8 -40.45,-14.8 -13.81,0 -22,6.25 -22,16.77 0,5.92 3,10.53 8.88,13.49 5.88,2.96 7.23,3.61 25.32,8.22 24,5.92 36.5,20.71 36.5,42.42 0,28.61 -20.06,45.05 -54.59,45.05 q -26.14,0 -45.38,-11.84 z"
       id="path14" />
    <path
       style="fill:#ffffff"
       class="cls-1"
       d="m 472,219.34 c 22.69,-8.22 44.72,-12.49 66.75,-12.49 41.11,0 60.84,17.75 60.84,55.24 v 93.72 h -32.22 v -90.76 c 0,-19.07 -10.52,-28.61 -31.89,-28.61 a 106.31,106.31 0 0 0 -30.91,4.28 V 355.81 H 472 Z"
       id="path16" />
    <path
       style="fill:#ffffff"
       class="cls-1"
       d="m 716,258.14 c 0,-14.79 -10.2,-23 -28.61,-23 -14.14,0 -26.31,3.28 -41.43,11.83 v -28.29 c 15.45,-8.22 29.92,-11.83 47.68,-11.83 35.84,0 54.26,16.77 54.26,49.65 v 96.35 a 208.68,208.68 0 0 1 -50.32,5.92 c -42.75,0 -65.11,-15.13 -65.11,-44.06 0,-28.93 23.68,-44.4 67.41,-44.4 H 716 Z m 0,33.86 h -13.8 c -24.34,0 -37.49,7.56 -37.49,21.7 0,13.48 11.84,20.72 33.21,20.72 A 122.69,122.69 0 0 0 716,332.79 Z"
       id="path18" />
    <path
       style="fill:#ffffff"
       class="cls-1"
       d="M 822.88,355.81 H 790.32 V 132.2 h 32.56 z m 1.31,-78.92 61.5,-66.76 h 40.12 l -64.13,66.1 65.44,79.58 h -38.8 z"
       id="path20" />
    <path
       style="fill:#ffffff"
       class="cls-1"
       d="M 968.55,290.37 V 291 c 0,11.51 7.24,24.33 18.42,31.57 8.55,5.92 18.41,8.55 30.25,8.55 17.76,0 31.9,-4.28 47.36,-14.14 v 28.61 c -13.82,8.88 -30.59,13.48 -51,13.48 -46.7,0 -76.62,-29.6 -76.62,-75 0,-45.71 29.26,-77.27 71,-77.27 39.14,0 61.83,24.66 61.83,67.08 v 16.44 z m 70.71,-21 c -1.32,-24 -11.84,-35.19 -32.56,-35.19 -19.4,0 -31.9,11.84 -37.16,35.19 z"
       id="path22" />
  </g>
</svg>
