<?xml version="1.0" encoding="UTF-8" standalone="no"?>
<!-- Created with Inkscape (http://www.inkscape.org/) -->

<svg
   xmlns:dc="http://purl.org/dc/elements/1.1/"
   xmlns:cc="http://creativecommons.org/ns#"
   xmlns:rdf="http://www.w3.org/1999/02/22-rdf-syntax-ns#"
   xmlns:svg="http://www.w3.org/2000/svg"
   xmlns="http://www.w3.org/2000/svg"
   xmlns:sodipodi="http://sodipodi.sourceforge.net/DTD/sodipodi-0.dtd"
   xmlns:inkscape="http://www.inkscape.org/namespaces/inkscape"
   width="200mm"
   height="200mm"
   viewBox="0 0 200 200"
   version="1.1"
   id="svg4451"
   inkscape:version="0.92.2 2405546, 2018-03-11"
   sodipodi:docname="favicon.svg">
  <defs
     id="defs4445" />
  <sodipodi:namedview
     id="base"
     pagecolor="#ffffff"
     bordercolor="#666666"
     borderopacity="1.0"
     inkscape:pageopacity="0.0"
     inkscape:pageshadow="2"
     inkscape:zoom="1.4"
     inkscape:cx="352.37885"
     inkscape:cy="509.27227"
     inkscape:document-units="mm"
     inkscape:current-layer="layer1"
     showgrid="true"
     inkscape:window-width="1899"
     inkscape:window-height="2030"
     inkscape:window-x="1907"
     inkscape:window-y="76"
     inkscape:window-maximized="0">
    <inkscape:grid
       type="xygrid"
       id="grid4521" />
  </sodipodi:namedview>
  <metadata
     id="metadata4448">
    <rdf:RDF>
      <cc:Work
         rdf:about="">
        <dc:format>image/svg+xml</dc:format>
        <dc:type
           rdf:resource="http://purl.org/dc/dcmitype/StillImage" />
        <dc:title></dc:title>
      </cc:Work>
    </rdf:RDF>
  </metadata>
  <g
     inkscape:label="Layer 1"
     inkscape:groupmode="layer"
     id="layer1"
     transform="translate(0,-97)">
    <g
       transform="matrix(0.26458333,0,0,0.26458333,43.355884,109.04523)"
       id="g4080">
      <path
         style="fill:#3fb1e5"
         inkscape:connector-curvature="0"
         d="m 127.66,592.521 c 0,4.678 -3.826,8.504 -8.504,8.504 H 72.334 c -4.678,0 -8.504,-3.826 -8.504,-8.504 v -46.822 c 0,-4.678 3.826,-8.504 8.504,-8.504 h 46.822 c 4.678,0 8.504,3.826 8.504,8.504 z"
         id="path4078" />
    </g>
    <g
       transform="matrix(0.26458333,0,0,0.26458333,43.355884,109.04523)"
       id="g4084">
      <path
         style="fill:#3fb1e5"
         inkscape:connector-curvature="0"
         d="m 206.555,592.521 c 0,4.678 -3.826,8.504 -8.504,8.504 h -46.822 c -4.678,0 -8.504,-3.826 -8.504,-8.504 v -46.822 c 0,-4.678 3.826,-8.504 8.504,-8.504 h 46.822 c 4.678,0 8.504,3.826 8.504,8.504 z"
         id="path4082" />
    </g>
    <g
       transform="matrix(0.26458333,0,0,0.26458333,43.355884,109.04523)"
       id="g4088">
      <path
         style="fill:#3fb1e5"
         inkscape:connector-curvature="0"
         d="m 285.449,592.521 c 0,4.678 -3.826,8.504 -8.504,8.504 h -46.822 c -4.678,0 -8.504,-3.826 -8.504,-8.504 v -46.822 c 0,-4.678 3.826,-8.504 8.504,-8.504 h 46.822 c 4.678,0 8.504,3.826 8.504,8.504 z"
         id="path4086" />
    </g>
    <g
       transform="matrix(0.26458333,0,0,0.26458333,43.355884,109.04523)"
       id="g4092">
      <path
         style="fill:#3fb1e5"
         inkscape:connector-curvature="0"
         d="m 127.66,355.84 c 0,4.678 -3.826,8.504 -8.504,8.504 H 72.334 c -4.678,0 -8.504,-3.826 -8.504,-8.504 v -46.822 c 0,-4.678 3.826,-8.504 8.504,-8.504 h 46.822 c 4.678,0 8.504,3.826 8.504,8.504 z"
         id="path4090" />
    </g>
    <g
       transform="matrix(0.26458333,0,0,0.26458333,43.355884,109.04523)"
       id="g4096">
      <path
         style="fill:#3fb1e5"
         inkscape:connector-curvature="0"
         d="m 206.555,355.84 c 0,4.678 -3.826,8.504 -8.504,8.504 h -46.822 c -4.678,0 -8.504,-3.826 -8.504,-8.504 v -46.822 c 0,-4.678 3.826,-8.504 8.504,-8.504 h 46.822 c 4.678,0 8.504,3.826 8.504,8.504 z"
         id="path4094" />
    </g>
    <g
       transform="matrix(0.26458333,0,0,0.26458333,43.355884,109.04523)"
       id="g4100">
      <path
         style="fill:#3fb1e5"
         inkscape:connector-curvature="0"
         d="m 285.449,355.84 c 0,4.678 -3.826,8.504 -8.504,8.504 h -46.822 c -4.678,0 -8.504,-3.826 -8.504,-8.504 v -46.822 c 0,-4.678 3.826,-8.504 8.504,-8.504 h 46.822 c 4.678,0 8.504,3.826 8.504,8.504 z"
         id="path4098" />
    </g>
    <g
       transform="matrix(0.26458333,0,0,0.26458333,43.355884,109.04523)"
       id="g4104">
      <path
         style="fill:#3fb1e5"
         inkscape:connector-curvature="0"
         d="m 364.346,513.627 c 0,4.678 -3.826,8.504 -8.504,8.504 H 309.02 c -4.678,0 -8.504,-3.826 -8.504,-8.504 v -46.822 c 0,-4.678 3.826,-8.504 8.504,-8.504 h 46.822 c 4.678,0 8.504,3.826 8.504,8.504 z"
         id="path4102" />
    </g>
    <g
       transform="matrix(0.26458333,0,0,0.26458333,43.355884,109.04523)"
       id="g4108">
      <path
         style="fill:#3fb1e5"
         inkscape:connector-curvature="0"
         d="m 364.346,592.334 c 0,4.678 -3.826,8.504 -8.504,8.504 H 309.02 c -4.678,0 -8.504,-3.826 -8.504,-8.504 v -46.822 c 0,-4.678 3.826,-8.504 8.504,-8.504 h 46.822 c 4.678,0 8.504,3.826 8.504,8.504 z"
         id="path4106" />
    </g>
    <g
       transform="matrix(0.26458333,0,0,0.26458333,43.355884,109.04523)"
       id="g4112">
      <path
         style="fill:#3fb1e5"
         inkscape:connector-curvature="0"
         d="m 364.346,434.732 c 0,4.678 -3.826,8.504 -8.504,8.504 H 309.02 c -4.678,0 -8.504,-3.826 -8.504,-8.504 V 387.91 c 0,-4.678 3.826,-8.504 8.504,-8.504 h 46.822 c 4.678,0 8.504,3.826 8.504,8.504 z"
         id="path4110" />
    </g>
    <g
       transform="matrix(0.26458333,0,0,0.26458333,43.355884,109.04523)"
       id="g4116">
      <path
         style="fill:#3fb1e5"
         inkscape:connector-curvature="0"
         d="m 127.662,276.945 c 0,4.678 -3.826,8.504 -8.504,8.504 H 72.336 c -4.678,0 -8.504,-3.826 -8.504,-8.504 v -46.822 c 0,-4.678 3.826,-8.504 8.504,-8.504 h 46.822 c 4.678,0 8.504,3.826 8.504,8.504 z"
         id="path4114" />
    </g>
    <g
       transform="matrix(0.26458333,0,0,0.26458333,43.355884,109.04523)"
       id="g4120">
      <path
         style="fill:#3fb1e5"
         inkscape:connector-curvature="0"
         d="m 127.662,198.051 c 0,4.678 -3.826,8.504 -8.504,8.504 H 72.336 c -4.678,0 -8.504,-3.826 -8.504,-8.504 v -46.822 c 0,-4.678 3.826,-8.504 8.504,-8.504 h 46.822 c 4.678,0 8.504,3.826 8.504,8.504 z"
         id="path4118" />
    </g>
    <g
       transform="matrix(0.26458333,0,0,0.26458333,43.355884,109.04523)"
       id="g4124">
      <path
         style="fill:#3fb1e5"
         inkscape:connector-curvature="0"
         d="m 364.346,355.84 c 0,4.678 -3.826,8.504 -8.504,8.504 H 309.02 c -4.678,0 -8.504,-3.826 -8.504,-8.504 v -46.822 c 0,-4.678 3.826,-8.504 8.504,-8.504 h 46.822 c 4.678,0 8.504,3.826 8.504,8.504 z"
         id="path4122" />
    </g>
    <g
       transform="matrix(0.26458333,0,0,0.26458333,43.355884,109.04523)"
       id="g4128">
      <path
         style="fill:#3fb1e5"
         inkscape:connector-curvature="0"
         d="m 206.555,119.156 c 0,4.678 -3.826,8.504 -8.504,8.504 h -46.822 c -4.678,0 -8.504,-3.826 -8.504,-8.504 V 72.334 c 0,-4.678 3.826,-8.504 8.504,-8.504 h 46.822 c 4.678,0 8.504,3.826 8.504,8.504 z"
         id="path4126" />
    </g>
    <g
       transform="matrix(0.26458333,0,0,0.26458333,43.355884,109.04523)"
       id="g4132">
      <path
         style="fill:#3fb1e5"
         inkscape:connector-curvature="0"
         d="m 127.66,119.156 c 0,4.678 -3.826,8.504 -8.504,8.504 H 72.334 c -4.678,0 -8.504,-3.826 -8.504,-8.504 V 72.334 c 0,-4.678 3.826,-8.504 8.504,-8.504 h 46.822 c 4.678,0 8.504,3.826 8.504,8.504 z"
         id="path4130" />
    </g>
    <g
       transform="matrix(0.26458333,0,0,0.26458333,43.355884,109.04523)"
       id="g4136">
      <path
         style="fill:#3fb1e5"
         inkscape:connector-curvature="0"
         d="m 285.449,119.156 c 0,4.678 -3.826,8.504 -8.504,8.504 h -46.822 c -4.678,0 -8.504,-3.826 -8.504,-8.504 V 72.334 c 0,-4.678 3.826,-8.504 8.504,-8.504 h 46.822 c 4.678,0 8.504,3.826 8.504,8.504 z"
         id="path4134" />
    </g>
    <g
       transform="matrix(0.26458333,0,0,0.26458333,43.355884,109.04523)"
       id="g4164">
      <path
         style="fill:#3fb1e5"
         inkscape:connector-curvature="0"
         d="m 364.346,119.156 c 0,4.678 -3.826,8.504 -8.504,8.504 H 309.02 c -4.678,0 -8.504,-3.826 -8.504,-8.504 V 72.334 c 0,-4.678 3.826,-8.504 8.504,-8.504 h 46.822 c 4.678,0 8.504,3.826 8.504,8.504 z"
         id="path4162" />
    </g>
  </g>
</svg>
