<?xml version="1.0" encoding="utf-8"?>
<!-- Generator: Adobe Illustrator 16.0.0, SVG Export Plug-In . SVG Version: 6.00 Build 0)  -->
<!DOCTYPE svg PUBLIC "-//W3C//DTD SVG 1.1//EN" "http://www.w3.org/Graphics/SVG/1.1/DTD/svg11.dtd">
<svg version="1.1" id="Layer_1" xmlns="http://www.w3.org/2000/svg" xmlns:xlink="http://www.w3.org/1999/xlink" x="0px" y="0px"
	 width="1973.111px" height="664.502px" viewBox="0 0 1973.111 664.502" enable-background="new 0 0 1973.111 664.502"
	 xml:space="preserve">
<g>
	<path fill="#3FB1E5" d="M127.66,592.521c0,4.678-3.826,8.504-8.504,8.504H72.334c-4.678,0-8.504-3.826-8.504-8.504v-46.822
		c0-4.678,3.826-8.504,8.504-8.504h46.822c4.678,0,8.504,3.826,8.504,8.504V592.521z"/>
</g>
<g>
	<path fill="#3FB1E5" d="M206.555,592.521c0,4.678-3.826,8.504-8.504,8.504h-46.822c-4.678,0-8.504-3.826-8.504-8.504v-46.822
		c0-4.678,3.826-8.504,8.504-8.504h46.822c4.678,0,8.504,3.826,8.504,8.504V592.521z"/>
</g>
<g>
	<path fill="#3FB1E5" d="M285.449,592.521c0,4.678-3.826,8.504-8.504,8.504h-46.822c-4.678,0-8.504-3.826-8.504-8.504v-46.822
		c0-4.678,3.826-8.504,8.504-8.504h46.822c4.678,0,8.504,3.826,8.504,8.504V592.521z"/>
</g>
<g>
	<path fill="#3FB1E5" d="M127.66,355.84c0,4.678-3.826,8.504-8.504,8.504H72.334c-4.678,0-8.504-3.826-8.504-8.504v-46.822
		c0-4.678,3.826-8.504,8.504-8.504h46.822c4.678,0,8.504,3.826,8.504,8.504V355.84z"/>
</g>
<g>
	<path fill="#3FB1E5" d="M206.555,355.84c0,4.678-3.826,8.504-8.504,8.504h-46.822c-4.678,0-8.504-3.826-8.504-8.504v-46.822
		c0-4.678,3.826-8.504,8.504-8.504h46.822c4.678,0,8.504,3.826,8.504,8.504V355.84z"/>
</g>
<g>
	<path fill="#3FB1E5" d="M285.449,355.84c0,4.678-3.826,8.504-8.504,8.504h-46.822c-4.678,0-8.504-3.826-8.504-8.504v-46.822
		c0-4.678,3.826-8.504,8.504-8.504h46.822c4.678,0,8.504,3.826,8.504,8.504V355.84z"/>
</g>
<g>
	<path fill="#3FB1E5" d="M364.346,513.627c0,4.678-3.826,8.504-8.504,8.504H309.02c-4.678,0-8.504-3.826-8.504-8.504v-46.822
		c0-4.678,3.826-8.504,8.504-8.504h46.822c4.678,0,8.504,3.826,8.504,8.504V513.627z"/>
</g>
<g>
	<path fill="#3FB1E5" d="M364.346,592.334c0,4.678-3.826,8.504-8.504,8.504H309.02c-4.678,0-8.504-3.826-8.504-8.504v-46.822
		c0-4.678,3.826-8.504,8.504-8.504h46.822c4.678,0,8.504,3.826,8.504,8.504V592.334z"/>
</g>
<g>
	<path fill="#3FB1E5" d="M364.346,434.732c0,4.678-3.826,8.504-8.504,8.504H309.02c-4.678,0-8.504-3.826-8.504-8.504V387.91
		c0-4.678,3.826-8.504,8.504-8.504h46.822c4.678,0,8.504,3.826,8.504,8.504V434.732z"/>
</g>
<g>
	<path fill="#3FB1E5" d="M127.662,276.945c0,4.678-3.826,8.504-8.504,8.504H72.336c-4.678,0-8.504-3.826-8.504-8.504v-46.822
		c0-4.678,3.826-8.504,8.504-8.504h46.822c4.678,0,8.504,3.826,8.504,8.504V276.945z"/>
</g>
<g>
	<path fill="#3FB1E5" d="M127.662,198.051c0,4.678-3.826,8.504-8.504,8.504H72.336c-4.678,0-8.504-3.826-8.504-8.504v-46.822
		c0-4.678,3.826-8.504,8.504-8.504h46.822c4.678,0,8.504,3.826,8.504,8.504V198.051z"/>
</g>
<g>
	<path fill="#3FB1E5" d="M364.346,355.84c0,4.678-3.826,8.504-8.504,8.504H309.02c-4.678,0-8.504-3.826-8.504-8.504v-46.822
		c0-4.678,3.826-8.504,8.504-8.504h46.822c4.678,0,8.504,3.826,8.504,8.504V355.84z"/>
</g>
<g>
	<path fill="#3FB1E5" d="M206.555,119.156c0,4.678-3.826,8.504-8.504,8.504h-46.822c-4.678,0-8.504-3.826-8.504-8.504V72.334
		c0-4.678,3.826-8.504,8.504-8.504h46.822c4.678,0,8.504,3.826,8.504,8.504V119.156z"/>
</g>
<g>
	<path fill="#3FB1E5" d="M127.66,119.156c0,4.678-3.826,8.504-8.504,8.504H72.334c-4.678,0-8.504-3.826-8.504-8.504V72.334
		c0-4.678,3.826-8.504,8.504-8.504h46.822c4.678,0,8.504,3.826,8.504,8.504V119.156z"/>
</g>
<g>
	<path fill="#3FB1E5" d="M285.449,119.156c0,4.678-3.826,8.504-8.504,8.504h-46.822c-4.678,0-8.504-3.826-8.504-8.504V72.334
		c0-4.678,3.826-8.504,8.504-8.504h46.822c4.678,0,8.504,3.826,8.504,8.504V119.156z"/>
</g>
<g>
	<path fill="#3FB1E5" d="M595.281,119.49c0,4.678-3.826,8.504-8.504,8.504h-46.822c-4.678,0-8.504-3.826-8.504-8.504V72.668
		c0-4.678,3.826-8.504,8.504-8.504h46.822c4.678,0,8.504,3.826,8.504,8.504V119.49z"/>
</g>
<g>
	<path fill="#3FB1E5" d="M516.389,119.49c0,4.678-3.826,8.504-8.504,8.504h-46.822c-4.678,0-8.504-3.826-8.504-8.504V72.668
		c0-4.678,3.826-8.504,8.504-8.504h46.822c4.678,0,8.504,3.826,8.504,8.504V119.49z"/>
</g>
<g>
	<path fill="#3FB1E5" d="M674.137,119.156c0,4.678-3.826,8.504-8.504,8.504h-46.822c-4.678,0-8.504-3.826-8.504-8.504V72.334
		c0-4.678,3.826-8.504,8.504-8.504h46.822c4.678,0,8.504,3.826,8.504,8.504V119.156z"/>
</g>
<g>
	<path fill="#3FB1E5" d="M753.07,119.156c0,4.678-3.826,8.504-8.504,8.504h-46.822c-4.678,0-8.504-3.826-8.504-8.504V72.334
		c0-4.678,3.826-8.504,8.504-8.504h46.822c4.678,0,8.504,3.826,8.504,8.504V119.156z"/>
</g>
<g>
	<path fill="#3FB1E5" d="M984.01,356.006c0,4.678-3.826,8.504-8.504,8.504h-46.822c-4.678,0-8.504-3.826-8.504-8.504v-46.822
		c0-4.678,3.826-8.504,8.504-8.504h46.822c4.678,0,8.504,3.826,8.504,8.504V356.006z"/>
</g>
<g>
	<path fill="#3FB1E5" d="M1062.863,355.674c0,4.678-3.826,8.504-8.504,8.504h-46.822c-4.678,0-8.504-3.826-8.504-8.504v-46.822
		c0-4.678,3.826-8.504,8.504-8.504h46.822c4.678,0,8.504,3.826,8.504,8.504V355.674z"/>
</g>
<g>
	<path fill="#3FB1E5" d="M364.346,119.156c0,4.678-3.826,8.504-8.504,8.504H309.02c-4.678,0-8.504-3.826-8.504-8.504V72.334
		c0-4.678,3.826-8.504,8.504-8.504h46.822c4.678,0,8.504,3.826,8.504,8.504V119.156z"/>
</g>
<g>
	<path fill="#3FB1E5" d="M516.387,592.521c0,4.678-3.826,8.504-8.504,8.504h-46.822c-4.678,0-8.504-3.826-8.504-8.504v-46.822
		c0-4.678,3.826-8.504,8.504-8.504h46.822c4.678,0,8.504,3.826,8.504,8.504V592.521z"/>
</g>
<g>
	<path fill="#3FB1E5" d="M516.387,355.84c0,4.678-3.826,8.504-8.504,8.504h-46.822c-4.678,0-8.504-3.826-8.504-8.504v-46.822
		c0-4.678,3.826-8.504,8.504-8.504h46.822c4.678,0,8.504,3.826,8.504,8.504V355.84z"/>
</g>
<g>
	<path fill="#3FB1E5" d="M753.072,513.627c0,4.678-3.826,8.504-8.504,8.504h-46.822c-4.678,0-8.504-3.826-8.504-8.504v-46.822
		c0-4.678,3.826-8.504,8.504-8.504h46.822c4.678,0,8.504,3.826,8.504,8.504V513.627z"/>
</g>
<g>
	<path fill="#3FB1E5" d="M753.072,434.732c0,4.678-3.826,8.504-8.504,8.504h-46.822c-4.678,0-8.504-3.826-8.504-8.504V387.91
		c0-4.678,3.826-8.504,8.504-8.504h46.822c4.678,0,8.504,3.826,8.504,8.504V434.732z"/>
</g>
<g>
	<path fill="#3FB1E5" d="M516.387,513.627c0,4.678-3.826,8.504-8.504,8.504h-46.822c-4.678,0-8.504-3.826-8.504-8.504v-46.822
		c0-4.678,3.826-8.504,8.504-8.504h46.822c4.678,0,8.504,3.826,8.504,8.504V513.627z"/>
</g>
<g>
	<path fill="#3FB1E5" d="M516.387,434.732c0,4.678-3.826,8.504-8.504,8.504h-46.822c-4.678,0-8.504-3.826-8.504-8.504V387.91
		c0-4.678,3.826-8.504,8.504-8.504h46.822c4.678,0,8.504,3.826,8.504,8.504V434.732z"/>
</g>
<g>
	<path fill="#3FB1E5" d="M516.389,276.945c0,4.678-3.826,8.504-8.504,8.504h-46.822c-4.678,0-8.504-3.826-8.504-8.504v-46.822
		c0-4.678,3.826-8.504,8.504-8.504h46.822c4.678,0,8.504,3.826,8.504,8.504V276.945z"/>
</g>
<g>
	<path fill="#3FB1E5" d="M516.389,198.051c0,4.678-3.826,8.504-8.504,8.504h-46.822c-4.678,0-8.504-3.826-8.504-8.504v-46.822
		c0-4.678,3.826-8.504,8.504-8.504h46.822c4.678,0,8.504,3.826,8.504,8.504V198.051z"/>
</g>
<g>
	<path fill="#3FB1E5" d="M753.07,276.945c0,4.678-3.826,8.504-8.504,8.504h-46.822c-4.678,0-8.504-3.826-8.504-8.504v-46.822
		c0-4.678,3.826-8.504,8.504-8.504h46.822c4.678,0,8.504,3.826,8.504,8.504V276.945z"/>
</g>
<g>
	<path fill="#3FB1E5" d="M753.07,198.051c0,4.678-3.826,8.504-8.504,8.504h-46.822c-4.678,0-8.504-3.826-8.504-8.504v-46.822
		c0-4.678,3.826-8.504,8.504-8.504h46.822c4.678,0,8.504,3.826,8.504,8.504V198.051z"/>
</g>
<g>
	<path fill="#3FB1E5" d="M753.072,355.84c0,4.678-3.826,8.504-8.504,8.504h-46.822c-4.678,0-8.504-3.826-8.504-8.504v-46.822
		c0-4.678,3.826-8.504,8.504-8.504h46.822c4.678,0,8.504,3.826,8.504,8.504V355.84z"/>
</g>
<g>
	<path fill="#3FB1E5" d="M753.07,592.521c0,4.678-3.826,8.504-8.504,8.504h-46.822c-4.678,0-8.504-3.826-8.504-8.504v-46.822
		c0-4.678,3.826-8.504,8.504-8.504h46.822c4.678,0,8.504,3.826,8.504,8.504V592.521z"/>
</g>
<g>
	<path fill="#3FB1E5" d="M905.115,119.49c0,4.678-3.826,8.504-8.504,8.504h-46.822c-4.678,0-8.504-3.826-8.504-8.504V72.668
		c0-4.678,3.826-8.504,8.504-8.504h46.822c4.678,0,8.504,3.826,8.504,8.504V119.49z"/>
</g>
<g>
	<path fill="#3FB1E5" d="M1062.863,119.156c0,4.678-3.826,8.504-8.504,8.504h-46.822c-4.678,0-8.504-3.826-8.504-8.504V72.334
		c0-4.678,3.826-8.504,8.504-8.504h46.822c4.678,0,8.504,3.826,8.504,8.504V119.156z"/>
</g>
<g>
	<path fill="#3FB1E5" d="M1141.799,119.156c0,4.678-3.826,8.504-8.504,8.504h-46.822c-4.678,0-8.504-3.826-8.504-8.504V72.334
		c0-4.678,3.826-8.504,8.504-8.504h46.822c4.678,0,8.504,3.826,8.504,8.504V119.156z"/>
</g>
<g>
	<path fill="#3FB1E5" d="M1672.599,119.156c0,4.678-3.827,8.504-8.504,8.504h-46.822c-4.677,0-8.504-3.826-8.504-8.504V72.334
		c0-4.678,3.827-8.504,8.504-8.504h46.822c4.677,0,8.504,3.826,8.504,8.504V119.156z"/>
</g>
<g>
	<path fill="#3FB1E5" d="M1672.599,592.168c0,4.678-3.827,8.504-8.504,8.504h-46.822c-4.677,0-8.504-3.826-8.504-8.504v-46.822
		c0-4.678,3.827-8.504,8.504-8.504h46.822c4.677,0,8.504,3.826,8.504,8.504V592.168z"/>
</g>
<g>
	<path fill="#3FB1E5" d="M984.01,119.156c0,4.678-3.826,8.504-8.504,8.504h-46.822c-4.678,0-8.504-3.826-8.504-8.504V72.334
		c0-4.678,3.826-8.504,8.504-8.504h46.822c4.678,0,8.504,3.826,8.504,8.504V119.156z"/>
</g>
<g>
	<path fill="#3FB1E5" d="M905.115,592.521c0,4.678-3.826,8.504-8.504,8.504h-46.822c-4.678,0-8.504-3.826-8.504-8.504v-46.822
		c0-4.678,3.826-8.504,8.504-8.504h46.822c4.678,0,8.504,3.826,8.504,8.504V592.521z"/>
</g>
<g>
	<path fill="#3FB1E5" d="M905.115,355.84c0,4.678-3.826,8.504-8.504,8.504h-46.822c-4.678,0-8.504-3.826-8.504-8.504v-46.822
		c0-4.678,3.826-8.504,8.504-8.504h46.822c4.678,0,8.504,3.826,8.504,8.504V355.84z"/>
</g>
<g>
	<path fill="#3FB1E5" d="M1141.799,513.627c0,4.678-3.826,8.504-8.504,8.504h-46.822c-4.678,0-8.504-3.826-8.504-8.504v-46.822
		c0-4.678,3.826-8.504,8.504-8.504h46.822c4.678,0,8.504,3.826,8.504,8.504V513.627z"/>
</g>
<g>
	<path fill="#3FB1E5" d="M1141.799,434.732c0,4.678-3.826,8.504-8.504,8.504h-46.822c-4.678,0-8.504-3.826-8.504-8.504V387.91
		c0-4.678,3.826-8.504,8.504-8.504h46.822c4.678,0,8.504,3.826,8.504,8.504V434.732z"/>
</g>
<g>
	<path fill="#3FB1E5" d="M905.115,513.627c0,4.678-3.826,8.504-8.504,8.504h-46.822c-4.678,0-8.504-3.826-8.504-8.504v-46.822
		c0-4.678,3.826-8.504,8.504-8.504h46.822c4.678,0,8.504,3.826,8.504,8.504V513.627z"/>
</g>
<g>
	<path fill="#3FB1E5" d="M905.115,434.732c0,4.678-3.826,8.504-8.504,8.504h-46.822c-4.678,0-8.504-3.826-8.504-8.504V387.91
		c0-4.678,3.826-8.504,8.504-8.504h46.822c4.678,0,8.504,3.826,8.504,8.504V434.732z"/>
</g>
<g>
	<path fill="#3FB1E5" d="M905.115,276.945c0,4.678-3.826,8.504-8.504,8.504h-46.822c-4.678,0-8.504-3.826-8.504-8.504v-46.822
		c0-4.678,3.826-8.504,8.504-8.504h46.822c4.678,0,8.504,3.826,8.504,8.504V276.945z"/>
</g>
<g>
	<path fill="#3FB1E5" d="M905.115,198.051c0,4.678-3.826,8.504-8.504,8.504h-46.822c-4.678,0-8.504-3.826-8.504-8.504v-46.822
		c0-4.678,3.826-8.504,8.504-8.504h46.822c4.678,0,8.504,3.826,8.504,8.504V198.051z"/>
</g>
<g>
	<path fill="#3FB1E5" d="M1141.799,276.945c0,4.678-3.826,8.504-8.504,8.504h-46.822c-4.678,0-8.504-3.826-8.504-8.504v-46.822
		c0-4.678,3.826-8.504,8.504-8.504h46.822c4.678,0,8.504,3.826,8.504,8.504V276.945z"/>
</g>
<g>
	<path fill="#3FB1E5" d="M1141.799,198.051c0,4.678-3.826,8.504-8.504,8.504h-46.822c-4.678,0-8.504-3.826-8.504-8.504v-46.822
		c0-4.678,3.826-8.504,8.504-8.504h46.822c4.678,0,8.504,3.826,8.504,8.504V198.051z"/>
</g>
<g>
	<path fill="#3FB1E5" d="M1141.799,355.84c0,4.678-3.826,8.504-8.504,8.504h-46.822c-4.678,0-8.504-3.826-8.504-8.504v-46.822
		c0-4.678,3.826-8.504,8.504-8.504h46.822c4.678,0,8.504,3.826,8.504,8.504V355.84z"/>
</g>
<g>
	<path fill="#3FB1E5" d="M1372.736,355.84c0,4.678-3.826,8.504-8.504,8.504h-46.822c-4.678,0-8.504-3.826-8.504-8.504v-46.822
		c0-4.678,3.826-8.504,8.504-8.504h46.822c4.678,0,8.504,3.826,8.504,8.504V355.84z"/>
</g>
<g>
	<path fill="#3FB1E5" d="M1141.799,592.521c0,4.678-3.826,8.504-8.504,8.504h-46.822c-4.678,0-8.504-3.826-8.504-8.504v-46.822
		c0-4.678,3.826-8.504,8.504-8.504h46.822c4.678,0,8.504,3.826,8.504,8.504V592.521z"/>
</g>
<g>
	<path fill="#3FB1E5" d="M1751.492,356.006c0,4.678-3.826,8.504-8.504,8.504h-46.822c-4.678,0-8.504-3.826-8.504-8.504v-46.822
		c0-4.678,3.826-8.504,8.504-8.504h46.822c4.678,0,8.504,3.826,8.504,8.504V356.006z"/>
</g>
<g>
	<path fill="#3FB1E5" d="M1830.346,355.674c0,4.678-3.826,8.504-8.504,8.504h-46.822c-4.678,0-8.504-3.826-8.504-8.504v-46.822
		c0-4.678,3.826-8.504,8.504-8.504h46.822c4.678,0,8.504,3.826,8.504,8.504V355.674z"/>
</g>
<g>
	<path fill="#3FB1E5" d="M1751.492,119.49c0,4.678-3.826,8.504-8.504,8.504h-46.822c-4.678,0-8.504-3.826-8.504-8.504V72.668
		c0-4.678,3.826-8.504,8.504-8.504h46.822c4.678,0,8.504,3.826,8.504,8.504V119.49z"/>
</g>
<g>
	<path fill="#3FB1E5" d="M1830.346,119.156c0,4.678-3.826,8.504-8.504,8.504h-46.822c-4.678,0-8.504-3.826-8.504-8.504V72.334
		c0-4.678,3.826-8.504,8.504-8.504h46.822c4.678,0,8.504,3.826,8.504,8.504V119.156z"/>
</g>
<g>
	<path fill="#3FB1E5" d="M1672.598,355.84c0,4.678-3.826,8.504-8.504,8.504h-46.822c-4.678,0-8.504-3.826-8.504-8.504v-46.822
		c0-4.678,3.826-8.504,8.504-8.504h46.822c4.678,0,8.504,3.826,8.504,8.504V355.84z"/>
</g>
<g>
	<path fill="#3FB1E5" d="M1672.598,513.627c0,4.678-3.826,8.504-8.504,8.504h-46.822c-4.678,0-8.504-3.826-8.504-8.504v-46.822
		c0-4.678,3.826-8.504,8.504-8.504h46.822c4.678,0,8.504,3.826,8.504,8.504V513.627z"/>
</g>
<g>
	<path fill="#3FB1E5" d="M1672.598,434.732c0,4.678-3.826,8.504-8.504,8.504h-46.822c-4.678,0-8.504-3.826-8.504-8.504V387.91
		c0-4.678,3.826-8.504,8.504-8.504h46.822c4.678,0,8.504,3.826,8.504,8.504V434.732z"/>
</g>
<g>
	<path fill="#3FB1E5" d="M1672.598,276.945c0,4.678-3.826,8.504-8.504,8.504h-46.822c-4.678,0-8.504-3.826-8.504-8.504v-46.822
		c0-4.678,3.826-8.504,8.504-8.504h46.822c4.678,0,8.504,3.826,8.504,8.504V276.945z"/>
</g>
<g>
	<path fill="#3FB1E5" d="M1672.598,198.051c0,4.678-3.826,8.504-8.504,8.504h-46.822c-4.678,0-8.504-3.826-8.504-8.504v-46.822
		c0-4.678,3.826-8.504,8.504-8.504h46.822c4.678,0,8.504,3.826,8.504,8.504V198.051z"/>
</g>
<g>
	<path fill="#3FB1E5" d="M1909.281,355.84c0,4.678-3.826,8.504-8.504,8.504h-46.822c-4.678,0-8.504-3.826-8.504-8.504v-46.822
		c0-4.678,3.826-8.504,8.504-8.504h46.822c4.678,0,8.504,3.826,8.504,8.504V355.84z"/>
</g>
<g>
	<path fill="#3FB1E5" d="M1751.492,592.5c0,4.678-3.826,8.504-8.504,8.504h-46.822c-4.678,0-8.504-3.826-8.504-8.504v-46.822
		c0-4.678,3.826-8.504,8.504-8.504h46.822c4.678,0,8.504,3.826,8.504,8.504V592.5z"/>
</g>
<g>
	<path fill="#3FB1E5" d="M1830.346,592.168c0,4.678-3.826,8.504-8.504,8.504h-46.822c-4.678,0-8.504-3.826-8.504-8.504v-46.822
		c0-4.678,3.826-8.504,8.504-8.504h46.822c4.678,0,8.504,3.826,8.504,8.504V592.168z"/>
</g>
<g>
	<path fill="#3FB1E5" d="M1909.281,592.334c0,4.678-3.826,8.504-8.504,8.504h-46.822c-4.678,0-8.504-3.826-8.504-8.504v-46.822
		c0-4.678,3.826-8.504,8.504-8.504h46.822c4.678,0,8.504,3.826,8.504,8.504V592.334z"/>
</g>
<g>
	<path fill="#3FB1E5" d="M1909.281,119.156c0,4.678-3.826,8.504-8.504,8.504h-46.822c-4.678,0-8.504-3.826-8.504-8.504V72.334
		c0-4.678,3.826-8.504,8.504-8.504h46.822c4.678,0,8.504,3.826,8.504,8.504V119.156z"/>
</g>
<g>
	<path fill="#3FB1E5" d="M1293.844,513.627c0,4.678-3.826,8.504-8.504,8.504h-46.822c-4.678,0-8.504-3.826-8.504-8.504v-46.822
		c0-4.678,3.826-8.504,8.504-8.504h46.822c4.678,0,8.504,3.826,8.504,8.504V513.627z"/>
</g>
<g>
	<path fill="#3FB1E5" d="M1293.844,434.732c0,4.678-3.826,8.504-8.504,8.504h-46.822c-4.678,0-8.504-3.826-8.504-8.504V387.91
		c0-4.678,3.826-8.504,8.504-8.504h46.822c4.678,0,8.504,3.826,8.504,8.504V434.732z"/>
</g>
<g>
	<path fill="#3FB1E5" d="M1293.842,276.945c0,4.678-3.826,8.504-8.504,8.504h-46.822c-4.678,0-8.504-3.826-8.504-8.504v-46.822
		c0-4.678,3.826-8.504,8.504-8.504h46.822c4.678,0,8.504,3.826,8.504,8.504V276.945z"/>
</g>
<g>
	<path fill="#3FB1E5" d="M1451.658,276.758c0,4.678-3.826,8.504-8.504,8.504h-46.822c-4.678,0-8.504-3.826-8.504-8.504v-46.822
		c0-4.678,3.826-8.504,8.504-8.504h46.822c4.678,0,8.504,3.826,8.504,8.504V276.758z"/>
</g>
<g>
	<path fill="#3FB1E5" d="M1293.842,198.051c0,4.678-3.826,8.504-8.504,8.504h-46.822c-4.678,0-8.504-3.826-8.504-8.504v-46.822
		c0-4.678,3.826-8.504,8.504-8.504h46.822c4.678,0,8.504,3.826,8.504,8.504V198.051z"/>
</g>
<g>
	<path fill="#3FB1E5" d="M1293.844,355.84c0,4.678-3.826,8.504-8.504,8.504h-46.822c-4.678,0-8.504-3.826-8.504-8.504v-46.822
		c0-4.678,3.826-8.504,8.504-8.504h46.822c4.678,0,8.504,3.826,8.504,8.504V355.84z"/>
</g>
<g>
	<path fill="#3FB1E5" d="M1293.844,119.156c0,4.678-3.826,8.504-8.504,8.504h-46.822c-4.678,0-8.504-3.826-8.504-8.504V72.334
		c0-4.678,3.826-8.504,8.504-8.504h46.822c4.678,0,8.504,3.826,8.504,8.504V119.156z"/>
</g>
<g>
	<path fill="#3FB1E5" d="M1530.553,198.051c0,4.678-3.826,8.504-8.504,8.504h-46.822c-4.678,0-8.504-3.826-8.504-8.504v-46.822
		c0-4.678,3.826-8.504,8.504-8.504h46.822c4.678,0,8.504,3.826,8.504,8.504V198.051z"/>
</g>
<g>
	<path fill="#3FB1E5" d="M1530.553,119.156c0,4.678-3.826,8.504-8.504,8.504h-46.822c-4.678,0-8.504-3.826-8.504-8.504V72.334
		c0-4.678,3.826-8.504,8.504-8.504h46.822c4.678,0,8.504,3.826,8.504,8.504V119.156z"/>
</g>
<g>
	<path fill="#3FB1E5" d="M1451.846,387.91c0-4.678-3.826-8.504-8.504-8.504h-46.822c-4.678,0-8.504,3.826-8.504,8.504v46.822
		c0,4.678,3.826,8.504,8.504,8.504h46.822c4.678,0,8.504-3.826,8.504-8.504V387.91z"/>
</g>
<g>
	<path fill="#3FB1E5" d="M1530.738,466.617c0-4.678-3.826-8.504-8.504-8.504h-46.822c-4.678,0-8.504,3.826-8.504,8.504v46.822
		c0,4.678,3.826,8.504,8.504,8.504h46.822c4.678,0,8.504-3.826,8.504-8.504V466.617z"/>
</g>
<g>
	<path fill="#3FB1E5" d="M1530.74,545.512c0-4.678-3.826-8.504-8.504-8.504h-46.822c-4.678,0-8.504,3.826-8.504,8.504v46.822
		c0,4.678,3.826,8.504,8.504,8.504h46.822c4.678,0,8.504-3.826,8.504-8.504V545.512z"/>
</g>
<g>
	<path fill="#3FB1E5" d="M1293.842,592.521c0,4.678-3.826,8.504-8.504,8.504h-46.822c-4.678,0-8.504-3.826-8.504-8.504v-46.822
		c0-4.678,3.826-8.504,8.504-8.504h46.822c4.678,0,8.504,3.826,8.504,8.504V592.521z"/>
</g>
</svg>
